<svg width="56" height="56" viewBox="0 0 56 56" fill="none" xmlns="http://www.w3.org/2000/svg">
  <rect width="56" height="56" rx="12" fill="#7B6CF6"/>
  <g>
    <rect x="13" y="16" width="30" height="18" rx="3" fill="#fff" stroke="#5A2A38" stroke-width="2"/>
    <rect x="17" y="20" width="22" height="2.5" rx="1.25" fill="#E0D7FB"/>
    <rect x="17" y="24.5" width="22" height="2.5" rx="1.25" fill="#E0D7FB"/>
    <rect x="17" y="29" width="12" height="2.5" rx="1.25" fill="#E0D7FB"/>
    <path d="M36 36C37.5 36 39 34.5 39 33C39 31.5 37.5 30 36 30C34.5 30 33 31.5 33 33C33 34.5 34.5 36 36 36Z" fill="#F5B3C1" stroke="#5A2A38" stroke-width="1.5"/>
    <path d="M36 36L41 41" stroke="#5A2A38" stroke-width="2" stroke-linecap="round"/>
    <path d="M25 41C28 38 32 38 35 41" stroke="#5A2A38" stroke-width="2" stroke-linecap="round"/>
    <path d="M20 41C21.5 39.5 23.5 39.5 25 41" stroke="#5A2A38" stroke-width="2" stroke-linecap="round"/>
  </g>
</svg>
